<mxfile host="app.diagrams.net" modified="2023-11-24T10:21:26.422Z" agent="Mozilla/5.0 (Macintosh; Intel Mac OS X 10_15_7) AppleWebKit/605.1.15 (KHTML, like Gecko) Version/17.0 Safari/605.1.15" etag="rPYi3bhRPYtMfdvT1sNY" version="22.1.3" type="device">
  <diagram name="Сторінка-1" id="BZBXhkKqsC0k_cU5STo5">
    <mxGraphModel dx="1122" dy="761" grid="1" gridSize="10" guides="1" tooltips="1" connect="1" arrows="1" fold="1" page="1" pageScale="1" pageWidth="827" pageHeight="1169" math="0" shadow="0">
      <root>
        <mxCell id="0" />
        <mxCell id="1" parent="0" />
        <mxCell id="yYSd6SAfWT79seE1dRWZ-31" style="edgeStyle=orthogonalEdgeStyle;rounded=1;orthogonalLoop=1;jettySize=auto;html=1;exitX=1;exitY=0.5;exitDx=0;exitDy=0;entryX=0;entryY=0.25;entryDx=0;entryDy=0;" parent="1" source="yYSd6SAfWT79seE1dRWZ-2" target="yYSd6SAfWT79seE1dRWZ-18" edge="1">
          <mxGeometry relative="1" as="geometry" />
        </mxCell>
        <mxCell id="yYSd6SAfWT79seE1dRWZ-2" value="Вибрати автомобіль" style="rounded=1;whiteSpace=wrap;html=1;" parent="1" vertex="1">
          <mxGeometry x="240" y="39" width="120" height="60" as="geometry" />
        </mxCell>
        <mxCell id="yYSd6SAfWT79seE1dRWZ-3" value="1" style="rounded=0;whiteSpace=wrap;html=1;" parent="1" vertex="1">
          <mxGeometry x="40" y="40" width="10" height="60" as="geometry" />
        </mxCell>
        <mxCell id="yYSd6SAfWT79seE1dRWZ-4" value="" style="endArrow=none;html=1;rounded=0;exitX=0;exitY=0;exitDx=0;exitDy=0;" parent="1" source="yYSd6SAfWT79seE1dRWZ-3" edge="1">
          <mxGeometry width="50" height="50" relative="1" as="geometry">
            <mxPoint x="80" y="40" as="sourcePoint" />
            <mxPoint x="130" y="40" as="targetPoint" />
          </mxGeometry>
        </mxCell>
        <mxCell id="yYSd6SAfWT79seE1dRWZ-6" value="2" style="rounded=0;whiteSpace=wrap;html=1;" parent="1" vertex="1">
          <mxGeometry x="40" y="290" width="10" height="60" as="geometry" />
        </mxCell>
        <mxCell id="yYSd6SAfWT79seE1dRWZ-7" value="" style="endArrow=none;html=1;rounded=0;exitX=0;exitY=0;exitDx=0;exitDy=0;" parent="1" source="yYSd6SAfWT79seE1dRWZ-6" edge="1">
          <mxGeometry width="50" height="50" relative="1" as="geometry">
            <mxPoint x="80" y="290" as="sourcePoint" />
            <mxPoint x="130" y="290" as="targetPoint" />
          </mxGeometry>
        </mxCell>
        <mxCell id="yYSd6SAfWT79seE1dRWZ-8" value="" style="endArrow=none;html=1;rounded=0;exitX=0;exitY=0;exitDx=0;exitDy=0;" parent="1" edge="1">
          <mxGeometry width="50" height="50" relative="1" as="geometry">
            <mxPoint x="40" y="100" as="sourcePoint" />
            <mxPoint x="130" y="100" as="targetPoint" />
          </mxGeometry>
        </mxCell>
        <mxCell id="yYSd6SAfWT79seE1dRWZ-9" value="3" style="rounded=0;whiteSpace=wrap;html=1;" parent="1" vertex="1">
          <mxGeometry x="290" y="438.75" width="10" height="60" as="geometry" />
        </mxCell>
        <mxCell id="yYSd6SAfWT79seE1dRWZ-10" value="" style="endArrow=none;html=1;rounded=0;exitX=0;exitY=0;exitDx=0;exitDy=0;" parent="1" source="yYSd6SAfWT79seE1dRWZ-9" edge="1">
          <mxGeometry width="50" height="50" relative="1" as="geometry">
            <mxPoint x="330" y="438.74999999999994" as="sourcePoint" />
            <mxPoint x="410" y="438.75" as="targetPoint" />
          </mxGeometry>
        </mxCell>
        <mxCell id="yYSd6SAfWT79seE1dRWZ-11" value="" style="endArrow=none;html=1;rounded=0;exitX=0;exitY=1;exitDx=0;exitDy=0;" parent="1" source="yYSd6SAfWT79seE1dRWZ-9" edge="1">
          <mxGeometry width="50" height="50" relative="1" as="geometry">
            <mxPoint x="330" y="498.75" as="sourcePoint" />
            <mxPoint x="410" y="498.75" as="targetPoint" />
          </mxGeometry>
        </mxCell>
        <mxCell id="yYSd6SAfWT79seE1dRWZ-15" value="4" style="rounded=0;whiteSpace=wrap;html=1;" parent="1" vertex="1">
          <mxGeometry x="680" y="290" width="10" height="60" as="geometry" />
        </mxCell>
        <mxCell id="yYSd6SAfWT79seE1dRWZ-16" value="" style="endArrow=none;html=1;rounded=0;exitX=0;exitY=0;exitDx=0;exitDy=0;" parent="1" source="yYSd6SAfWT79seE1dRWZ-15" edge="1">
          <mxGeometry width="50" height="50" relative="1" as="geometry">
            <mxPoint x="720" y="290" as="sourcePoint" />
            <mxPoint x="800" y="290" as="targetPoint" />
          </mxGeometry>
        </mxCell>
        <mxCell id="yYSd6SAfWT79seE1dRWZ-17" value="" style="endArrow=none;html=1;rounded=0;" parent="1" edge="1">
          <mxGeometry width="50" height="50" relative="1" as="geometry">
            <mxPoint x="680" y="350" as="sourcePoint" />
            <mxPoint x="800" y="350" as="targetPoint" />
          </mxGeometry>
        </mxCell>
        <mxCell id="yYSd6SAfWT79seE1dRWZ-41" style="edgeStyle=orthogonalEdgeStyle;rounded=0;orthogonalLoop=1;jettySize=auto;html=1;exitX=1;exitY=0.5;exitDx=0;exitDy=0;" parent="1" source="yYSd6SAfWT79seE1dRWZ-18" edge="1">
          <mxGeometry relative="1" as="geometry">
            <mxPoint x="680" y="170" as="targetPoint" />
          </mxGeometry>
        </mxCell>
        <mxCell id="yYSd6SAfWT79seE1dRWZ-18" value="Створити новий ордер" style="rounded=1;whiteSpace=wrap;html=1;" parent="1" vertex="1">
          <mxGeometry x="480" y="140" width="120" height="60" as="geometry" />
        </mxCell>
        <mxCell id="yYSd6SAfWT79seE1dRWZ-30" style="edgeStyle=orthogonalEdgeStyle;rounded=0;orthogonalLoop=1;jettySize=auto;html=1;exitX=1;exitY=0.5;exitDx=0;exitDy=0;entryX=0;entryY=0.75;entryDx=0;entryDy=0;" parent="1" source="yYSd6SAfWT79seE1dRWZ-19" target="yYSd6SAfWT79seE1dRWZ-18" edge="1">
          <mxGeometry relative="1" as="geometry" />
        </mxCell>
        <mxCell id="yYSd6SAfWT79seE1dRWZ-19" value="Вказати дату" style="rounded=1;whiteSpace=wrap;html=1;" parent="1" vertex="1">
          <mxGeometry x="240" y="155" width="120" height="60" as="geometry" />
        </mxCell>
        <mxCell id="yYSd6SAfWT79seE1dRWZ-47" style="edgeStyle=orthogonalEdgeStyle;rounded=0;orthogonalLoop=1;jettySize=auto;html=1;exitX=1;exitY=0.5;exitDx=0;exitDy=0;" parent="1" source="yYSd6SAfWT79seE1dRWZ-20" edge="1">
          <mxGeometry relative="1" as="geometry">
            <mxPoint x="880" y="470" as="targetPoint" />
          </mxGeometry>
        </mxCell>
        <mxCell id="yYSd6SAfWT79seE1dRWZ-20" value="Роздрукувати ордер" style="rounded=1;whiteSpace=wrap;html=1;" parent="1" vertex="1">
          <mxGeometry x="681" y="439.75" width="120" height="60" as="geometry" />
        </mxCell>
        <mxCell id="yYSd6SAfWT79seE1dRWZ-44" style="edgeStyle=orthogonalEdgeStyle;rounded=0;orthogonalLoop=1;jettySize=auto;html=1;exitX=0.5;exitY=1;exitDx=0;exitDy=0;" parent="1" source="yYSd6SAfWT79seE1dRWZ-21" edge="1">
          <mxGeometry relative="1" as="geometry">
            <mxPoint x="740" y="290" as="targetPoint" />
          </mxGeometry>
        </mxCell>
        <mxCell id="yYSd6SAfWT79seE1dRWZ-21" value="Внести ордер у базу даних ордерів" style="rounded=1;whiteSpace=wrap;html=1;" parent="1" vertex="1">
          <mxGeometry x="680" y="140" width="120" height="60" as="geometry" />
        </mxCell>
        <mxCell id="yYSd6SAfWT79seE1dRWZ-23" value="" style="endArrow=none;html=1;rounded=0;exitX=0;exitY=0;exitDx=0;exitDy=0;" parent="1" edge="1">
          <mxGeometry width="50" height="50" relative="1" as="geometry">
            <mxPoint x="40" y="350" as="sourcePoint" />
            <mxPoint x="130" y="350" as="targetPoint" />
          </mxGeometry>
        </mxCell>
        <mxCell id="yYSd6SAfWT79seE1dRWZ-24" value="Таблиця&lt;br&gt;&quot;Автомобілі&quot;" style="text;html=1;align=center;verticalAlign=middle;resizable=0;points=[];autosize=1;strokeColor=none;fillColor=none;" parent="1" vertex="1">
          <mxGeometry x="45" y="50" width="90" height="40" as="geometry" />
        </mxCell>
        <mxCell id="yYSd6SAfWT79seE1dRWZ-25" value="" style="endArrow=classic;html=1;rounded=0;entryX=0;entryY=0.5;entryDx=0;entryDy=0;" parent="1" target="yYSd6SAfWT79seE1dRWZ-2" edge="1">
          <mxGeometry width="50" height="50" relative="1" as="geometry">
            <mxPoint x="130" y="69" as="sourcePoint" />
            <mxPoint x="170" y="20" as="targetPoint" />
          </mxGeometry>
        </mxCell>
        <mxCell id="yYSd6SAfWT79seE1dRWZ-26" value="Дані автомобілів" style="text;html=1;align=center;verticalAlign=middle;resizable=0;points=[];autosize=1;strokeColor=none;fillColor=none;" parent="1" vertex="1">
          <mxGeometry x="121" y="46" width="120" height="30" as="geometry" />
        </mxCell>
        <mxCell id="yYSd6SAfWT79seE1dRWZ-32" value="Дані нашого&lt;br&gt;підприємства" style="text;html=1;align=center;verticalAlign=middle;resizable=0;points=[];autosize=1;strokeColor=none;fillColor=none;" parent="1" vertex="1">
          <mxGeometry x="40" y="300" width="100" height="40" as="geometry" />
        </mxCell>
        <mxCell id="yYSd6SAfWT79seE1dRWZ-33" value="Таблиця &quot;Клієнти&quot;" style="text;html=1;align=center;verticalAlign=middle;resizable=0;points=[];autosize=1;strokeColor=none;fillColor=none;" parent="1" vertex="1">
          <mxGeometry x="289" y="452.18" width="130" height="30" as="geometry" />
        </mxCell>
        <mxCell id="yYSd6SAfWT79seE1dRWZ-34" value="Код, Назва, VIN, колір&lt;br&gt;&lt;div style=&quot;&quot;&gt;вибраного автомобіля&lt;/div&gt;" style="text;html=1;align=left;verticalAlign=middle;resizable=0;points=[];autosize=1;strokeColor=none;fillColor=none;" parent="1" vertex="1">
          <mxGeometry x="424" y="50" width="150" height="40" as="geometry" />
        </mxCell>
        <mxCell id="yYSd6SAfWT79seE1dRWZ-35" value="" style="endArrow=classic;html=1;rounded=1;entryX=0.75;entryY=1;entryDx=0;entryDy=0;exitX=0.993;exitY=0.601;exitDx=0;exitDy=0;exitPerimeter=0;" parent="1" source="yYSd6SAfWT79seE1dRWZ-33" target="yYSd6SAfWT79seE1dRWZ-18" edge="1">
          <mxGeometry width="50" height="50" relative="1" as="geometry">
            <mxPoint x="420" y="470" as="sourcePoint" />
            <mxPoint x="280" y="370" as="targetPoint" />
            <Array as="points">
              <mxPoint x="570" y="470" />
            </Array>
          </mxGeometry>
        </mxCell>
        <mxCell id="yYSd6SAfWT79seE1dRWZ-36" value="Код, ПІП, ДН клієнта" style="text;html=1;align=center;verticalAlign=middle;resizable=0;points=[];autosize=1;strokeColor=none;fillColor=none;" parent="1" vertex="1">
          <mxGeometry x="424" y="445" width="140" height="30" as="geometry" />
        </mxCell>
        <mxCell id="yYSd6SAfWT79seE1dRWZ-38" value="Таблиця&lt;br&gt;&quot;Ордери&quot;" style="text;html=1;align=center;verticalAlign=middle;resizable=0;points=[];autosize=1;strokeColor=none;fillColor=none;" parent="1" vertex="1">
          <mxGeometry x="700" y="300" width="80" height="40" as="geometry" />
        </mxCell>
        <mxCell id="yYSd6SAfWT79seE1dRWZ-40" value="" style="endArrow=classic;html=1;rounded=1;entryX=0.25;entryY=1;entryDx=0;entryDy=0;" parent="1" target="yYSd6SAfWT79seE1dRWZ-18" edge="1">
          <mxGeometry width="50" height="50" relative="1" as="geometry">
            <mxPoint x="130" y="320" as="sourcePoint" />
            <mxPoint x="284" y="270" as="targetPoint" />
            <Array as="points">
              <mxPoint x="510" y="320" />
            </Array>
          </mxGeometry>
        </mxCell>
        <mxCell id="yYSd6SAfWT79seE1dRWZ-48" value="Ордер" style="text;html=1;align=center;verticalAlign=middle;resizable=0;points=[];autosize=1;strokeColor=none;fillColor=none;" parent="1" vertex="1">
          <mxGeometry x="819" y="447" width="60" height="30" as="geometry" />
        </mxCell>
        <mxCell id="yYSd6SAfWT79seE1dRWZ-50" style="edgeStyle=orthogonalEdgeStyle;rounded=0;orthogonalLoop=1;jettySize=auto;html=1;exitX=1;exitY=0.5;exitDx=0;exitDy=0;entryX=0;entryY=0.5;entryDx=0;entryDy=0;" parent="1" source="yYSd6SAfWT79seE1dRWZ-49" target="yYSd6SAfWT79seE1dRWZ-9" edge="1">
          <mxGeometry relative="1" as="geometry" />
        </mxCell>
        <mxCell id="yYSd6SAfWT79seE1dRWZ-49" value="Внести дані клієнта у базу даних" style="rounded=1;whiteSpace=wrap;html=1;" parent="1" vertex="1">
          <mxGeometry x="40" y="438.75" width="120" height="60" as="geometry" />
        </mxCell>
        <mxCell id="yYSd6SAfWT79seE1dRWZ-53" style="edgeStyle=orthogonalEdgeStyle;rounded=0;orthogonalLoop=1;jettySize=auto;html=1;exitX=0.5;exitY=1;exitDx=0;exitDy=0;" parent="1" edge="1">
          <mxGeometry relative="1" as="geometry">
            <mxPoint x="739.58" y="440" as="targetPoint" />
            <mxPoint x="739.58" y="350" as="sourcePoint" />
          </mxGeometry>
        </mxCell>
        <mxCell id="yYSd6SAfWT79seE1dRWZ-65" style="edgeStyle=orthogonalEdgeStyle;rounded=1;orthogonalLoop=1;jettySize=auto;html=1;exitX=1;exitY=0.5;exitDx=0;exitDy=0;entryX=0;entryY=0.25;entryDx=0;entryDy=0;" parent="1" source="yYSd6SAfWT79seE1dRWZ-66" target="yYSd6SAfWT79seE1dRWZ-79" edge="1">
          <mxGeometry relative="1" as="geometry" />
        </mxCell>
        <mxCell id="yYSd6SAfWT79seE1dRWZ-66" value="Вибрати автомобіль" style="rounded=1;whiteSpace=wrap;html=1;" parent="1" vertex="1">
          <mxGeometry x="240" y="560" width="120" height="60" as="geometry" />
        </mxCell>
        <mxCell id="yYSd6SAfWT79seE1dRWZ-67" value="1" style="rounded=0;whiteSpace=wrap;html=1;" parent="1" vertex="1">
          <mxGeometry x="40" y="561" width="10" height="60" as="geometry" />
        </mxCell>
        <mxCell id="yYSd6SAfWT79seE1dRWZ-68" value="" style="endArrow=none;html=1;rounded=0;exitX=0;exitY=0;exitDx=0;exitDy=0;" parent="1" source="yYSd6SAfWT79seE1dRWZ-67" edge="1">
          <mxGeometry width="50" height="50" relative="1" as="geometry">
            <mxPoint x="80" y="561" as="sourcePoint" />
            <mxPoint x="130" y="561" as="targetPoint" />
          </mxGeometry>
        </mxCell>
        <mxCell id="yYSd6SAfWT79seE1dRWZ-69" value="2" style="rounded=0;whiteSpace=wrap;html=1;" parent="1" vertex="1">
          <mxGeometry x="40" y="811" width="10" height="60" as="geometry" />
        </mxCell>
        <mxCell id="yYSd6SAfWT79seE1dRWZ-70" value="" style="endArrow=none;html=1;rounded=0;exitX=0;exitY=0;exitDx=0;exitDy=0;" parent="1" source="yYSd6SAfWT79seE1dRWZ-69" edge="1">
          <mxGeometry width="50" height="50" relative="1" as="geometry">
            <mxPoint x="80" y="811" as="sourcePoint" />
            <mxPoint x="130" y="811" as="targetPoint" />
          </mxGeometry>
        </mxCell>
        <mxCell id="yYSd6SAfWT79seE1dRWZ-71" value="" style="endArrow=none;html=1;rounded=0;exitX=0;exitY=0;exitDx=0;exitDy=0;" parent="1" edge="1">
          <mxGeometry width="50" height="50" relative="1" as="geometry">
            <mxPoint x="40" y="621" as="sourcePoint" />
            <mxPoint x="130" y="621" as="targetPoint" />
          </mxGeometry>
        </mxCell>
        <mxCell id="yYSd6SAfWT79seE1dRWZ-72" value="3" style="rounded=0;whiteSpace=wrap;html=1;" parent="1" vertex="1">
          <mxGeometry x="41" y="959.75" width="10" height="60" as="geometry" />
        </mxCell>
        <mxCell id="yYSd6SAfWT79seE1dRWZ-73" value="" style="endArrow=none;html=1;rounded=0;exitX=0;exitY=0;exitDx=0;exitDy=0;" parent="1" source="yYSd6SAfWT79seE1dRWZ-72" edge="1">
          <mxGeometry width="50" height="50" relative="1" as="geometry">
            <mxPoint x="81" y="959.75" as="sourcePoint" />
            <mxPoint x="161" y="959.75" as="targetPoint" />
          </mxGeometry>
        </mxCell>
        <mxCell id="yYSd6SAfWT79seE1dRWZ-74" value="" style="endArrow=none;html=1;rounded=0;exitX=0;exitY=1;exitDx=0;exitDy=0;" parent="1" source="yYSd6SAfWT79seE1dRWZ-72" edge="1">
          <mxGeometry width="50" height="50" relative="1" as="geometry">
            <mxPoint x="81" y="1019.75" as="sourcePoint" />
            <mxPoint x="161" y="1019.75" as="targetPoint" />
          </mxGeometry>
        </mxCell>
        <mxCell id="yYSd6SAfWT79seE1dRWZ-75" value="5" style="rounded=0;whiteSpace=wrap;html=1;" parent="1" vertex="1">
          <mxGeometry x="680" y="811" width="10" height="60" as="geometry" />
        </mxCell>
        <mxCell id="yYSd6SAfWT79seE1dRWZ-76" value="" style="endArrow=none;html=1;rounded=0;exitX=0;exitY=0;exitDx=0;exitDy=0;" parent="1" source="yYSd6SAfWT79seE1dRWZ-75" edge="1">
          <mxGeometry width="50" height="50" relative="1" as="geometry">
            <mxPoint x="720" y="811" as="sourcePoint" />
            <mxPoint x="800" y="811" as="targetPoint" />
          </mxGeometry>
        </mxCell>
        <mxCell id="yYSd6SAfWT79seE1dRWZ-77" value="" style="endArrow=none;html=1;rounded=0;" parent="1" edge="1">
          <mxGeometry width="50" height="50" relative="1" as="geometry">
            <mxPoint x="680" y="871" as="sourcePoint" />
            <mxPoint x="800" y="871" as="targetPoint" />
          </mxGeometry>
        </mxCell>
        <mxCell id="yYSd6SAfWT79seE1dRWZ-78" style="edgeStyle=orthogonalEdgeStyle;rounded=0;orthogonalLoop=1;jettySize=auto;html=1;exitX=1;exitY=0.5;exitDx=0;exitDy=0;" parent="1" source="yYSd6SAfWT79seE1dRWZ-79" edge="1">
          <mxGeometry relative="1" as="geometry">
            <mxPoint x="680" y="691" as="targetPoint" />
          </mxGeometry>
        </mxCell>
        <mxCell id="yYSd6SAfWT79seE1dRWZ-79" value="Створити новий запис обслуговування" style="rounded=1;whiteSpace=wrap;html=1;" parent="1" vertex="1">
          <mxGeometry x="480" y="661" width="120" height="60" as="geometry" />
        </mxCell>
        <mxCell id="yYSd6SAfWT79seE1dRWZ-80" style="edgeStyle=orthogonalEdgeStyle;rounded=0;orthogonalLoop=1;jettySize=auto;html=1;exitX=1;exitY=0.5;exitDx=0;exitDy=0;entryX=0;entryY=0.75;entryDx=0;entryDy=0;" parent="1" source="yYSd6SAfWT79seE1dRWZ-81" target="yYSd6SAfWT79seE1dRWZ-79" edge="1">
          <mxGeometry relative="1" as="geometry" />
        </mxCell>
        <mxCell id="yYSd6SAfWT79seE1dRWZ-81" value="Вказати дату" style="rounded=1;whiteSpace=wrap;html=1;" parent="1" vertex="1">
          <mxGeometry x="240" y="676" width="120" height="60" as="geometry" />
        </mxCell>
        <mxCell id="yYSd6SAfWT79seE1dRWZ-82" style="edgeStyle=orthogonalEdgeStyle;rounded=0;orthogonalLoop=1;jettySize=auto;html=1;exitX=1;exitY=0.5;exitDx=0;exitDy=0;" parent="1" source="yYSd6SAfWT79seE1dRWZ-83" edge="1">
          <mxGeometry relative="1" as="geometry">
            <mxPoint x="930" y="990" as="targetPoint" />
          </mxGeometry>
        </mxCell>
        <mxCell id="yYSd6SAfWT79seE1dRWZ-83" value="Вписати проведені роботи у сервісну книгу автомобіля" style="rounded=1;whiteSpace=wrap;html=1;" parent="1" vertex="1">
          <mxGeometry x="681" y="960.75" width="120" height="60" as="geometry" />
        </mxCell>
        <mxCell id="yYSd6SAfWT79seE1dRWZ-84" style="edgeStyle=orthogonalEdgeStyle;rounded=0;orthogonalLoop=1;jettySize=auto;html=1;exitX=0.5;exitY=1;exitDx=0;exitDy=0;" parent="1" source="yYSd6SAfWT79seE1dRWZ-85" edge="1">
          <mxGeometry relative="1" as="geometry">
            <mxPoint x="740" y="811" as="targetPoint" />
          </mxGeometry>
        </mxCell>
        <mxCell id="yYSd6SAfWT79seE1dRWZ-85" value="Внести запис у базу даних ордерів" style="rounded=1;whiteSpace=wrap;html=1;" parent="1" vertex="1">
          <mxGeometry x="680" y="661" width="120" height="60" as="geometry" />
        </mxCell>
        <mxCell id="yYSd6SAfWT79seE1dRWZ-86" value="" style="endArrow=none;html=1;rounded=0;exitX=0;exitY=0;exitDx=0;exitDy=0;" parent="1" edge="1">
          <mxGeometry width="50" height="50" relative="1" as="geometry">
            <mxPoint x="40" y="871" as="sourcePoint" />
            <mxPoint x="130" y="871" as="targetPoint" />
          </mxGeometry>
        </mxCell>
        <mxCell id="yYSd6SAfWT79seE1dRWZ-87" value="Таблиця&lt;br&gt;&quot;Автомобілі&quot;" style="text;html=1;align=center;verticalAlign=middle;resizable=0;points=[];autosize=1;strokeColor=none;fillColor=none;" parent="1" vertex="1">
          <mxGeometry x="45" y="571" width="90" height="40" as="geometry" />
        </mxCell>
        <mxCell id="yYSd6SAfWT79seE1dRWZ-88" value="" style="endArrow=classic;html=1;rounded=0;entryX=0;entryY=0.5;entryDx=0;entryDy=0;" parent="1" target="yYSd6SAfWT79seE1dRWZ-66" edge="1">
          <mxGeometry width="50" height="50" relative="1" as="geometry">
            <mxPoint x="130" y="590" as="sourcePoint" />
            <mxPoint x="170" y="541" as="targetPoint" />
          </mxGeometry>
        </mxCell>
        <mxCell id="yYSd6SAfWT79seE1dRWZ-89" value="Дані автомобілів" style="text;html=1;align=center;verticalAlign=middle;resizable=0;points=[];autosize=1;strokeColor=none;fillColor=none;" parent="1" vertex="1">
          <mxGeometry x="121" y="567" width="120" height="30" as="geometry" />
        </mxCell>
        <mxCell id="yYSd6SAfWT79seE1dRWZ-90" value="Таблиця&lt;br&gt;&quot;Послуги&quot;" style="text;html=1;align=center;verticalAlign=middle;resizable=0;points=[];autosize=1;strokeColor=none;fillColor=none;" parent="1" vertex="1">
          <mxGeometry x="50" y="821" width="80" height="40" as="geometry" />
        </mxCell>
        <mxCell id="yYSd6SAfWT79seE1dRWZ-91" value="Таблиця&lt;br&gt;&quot;Працівники&quot;" style="text;html=1;align=center;verticalAlign=middle;resizable=0;points=[];autosize=1;strokeColor=none;fillColor=none;" parent="1" vertex="1">
          <mxGeometry x="55" y="968.1800000000001" width="100" height="40" as="geometry" />
        </mxCell>
        <mxCell id="yYSd6SAfWT79seE1dRWZ-93" value="" style="endArrow=classic;html=1;rounded=1;entryX=0.75;entryY=1;entryDx=0;entryDy=0;exitX=1;exitY=0.5;exitDx=0;exitDy=0;" parent="1" source="yYSd6SAfWT79seE1dRWZ-99" target="yYSd6SAfWT79seE1dRWZ-79" edge="1">
          <mxGeometry width="50" height="50" relative="1" as="geometry">
            <mxPoint x="430" y="991" as="sourcePoint" />
            <mxPoint x="280" y="891" as="targetPoint" />
            <Array as="points">
              <mxPoint x="570" y="991" />
            </Array>
          </mxGeometry>
        </mxCell>
        <mxCell id="yYSd6SAfWT79seE1dRWZ-94" value="Код, ПІП працівника" style="text;html=1;align=center;verticalAlign=middle;resizable=0;points=[];autosize=1;strokeColor=none;fillColor=none;" parent="1" vertex="1">
          <mxGeometry x="419" y="966.75" width="140" height="30" as="geometry" />
        </mxCell>
        <mxCell id="yYSd6SAfWT79seE1dRWZ-95" value="Таблиця&lt;br&gt;&quot;Обслуговування&quot;" style="text;html=1;align=center;verticalAlign=middle;resizable=0;points=[];autosize=1;strokeColor=none;fillColor=none;" parent="1" vertex="1">
          <mxGeometry x="680" y="821" width="120" height="40" as="geometry" />
        </mxCell>
        <mxCell id="yYSd6SAfWT79seE1dRWZ-96" value="" style="endArrow=classic;html=1;rounded=1;entryX=0;entryY=0.5;entryDx=0;entryDy=0;" parent="1" target="yYSd6SAfWT79seE1dRWZ-122" edge="1">
          <mxGeometry width="50" height="50" relative="1" as="geometry">
            <mxPoint x="130" y="841" as="sourcePoint" />
            <mxPoint x="260" y="841" as="targetPoint" />
            <Array as="points">
              <mxPoint x="180" y="841" />
            </Array>
          </mxGeometry>
        </mxCell>
        <mxCell id="yYSd6SAfWT79seE1dRWZ-97" value="Обслуговування" style="text;html=1;align=center;verticalAlign=middle;resizable=0;points=[];autosize=1;strokeColor=none;fillColor=none;" parent="1" vertex="1">
          <mxGeometry x="811" y="968.75" width="120" height="30" as="geometry" />
        </mxCell>
        <mxCell id="yYSd6SAfWT79seE1dRWZ-99" value="Вибрати працівника" style="rounded=1;whiteSpace=wrap;html=1;" parent="1" vertex="1">
          <mxGeometry x="294" y="961.1800000000001" width="120" height="60" as="geometry" />
        </mxCell>
        <mxCell id="yYSd6SAfWT79seE1dRWZ-100" style="edgeStyle=orthogonalEdgeStyle;rounded=0;orthogonalLoop=1;jettySize=auto;html=1;exitX=0.5;exitY=1;exitDx=0;exitDy=0;" parent="1" edge="1">
          <mxGeometry relative="1" as="geometry">
            <mxPoint x="739.58" y="961" as="targetPoint" />
            <mxPoint x="739.58" y="871" as="sourcePoint" />
          </mxGeometry>
        </mxCell>
        <mxCell id="yYSd6SAfWT79seE1dRWZ-101" value="" style="endArrow=classic;html=1;rounded=0;entryX=0;entryY=0.5;entryDx=0;entryDy=0;" parent="1" target="yYSd6SAfWT79seE1dRWZ-99" edge="1">
          <mxGeometry width="50" height="50" relative="1" as="geometry">
            <mxPoint x="159" y="991" as="sourcePoint" />
            <mxPoint x="269" y="991" as="targetPoint" />
          </mxGeometry>
        </mxCell>
        <mxCell id="yYSd6SAfWT79seE1dRWZ-102" value="Дані працівників" style="text;html=1;align=center;verticalAlign=middle;resizable=0;points=[];autosize=1;strokeColor=none;fillColor=none;" parent="1" vertex="1">
          <mxGeometry x="165" y="967.75" width="120" height="30" as="geometry" />
        </mxCell>
        <mxCell id="yYSd6SAfWT79seE1dRWZ-115" value="4" style="rounded=0;whiteSpace=wrap;html=1;" parent="1" vertex="1">
          <mxGeometry x="40" y="1079" width="10" height="60" as="geometry" />
        </mxCell>
        <mxCell id="yYSd6SAfWT79seE1dRWZ-116" value="" style="endArrow=none;html=1;rounded=0;exitX=0;exitY=0;exitDx=0;exitDy=0;" parent="1" source="yYSd6SAfWT79seE1dRWZ-115" edge="1">
          <mxGeometry width="50" height="50" relative="1" as="geometry">
            <mxPoint x="80" y="1079" as="sourcePoint" />
            <mxPoint x="130" y="1079" as="targetPoint" />
          </mxGeometry>
        </mxCell>
        <mxCell id="yYSd6SAfWT79seE1dRWZ-118" value="" style="endArrow=none;html=1;rounded=0;exitX=0;exitY=0;exitDx=0;exitDy=0;" parent="1" edge="1">
          <mxGeometry width="50" height="50" relative="1" as="geometry">
            <mxPoint x="40" y="1139" as="sourcePoint" />
            <mxPoint x="130" y="1139" as="targetPoint" />
          </mxGeometry>
        </mxCell>
        <mxCell id="yYSd6SAfWT79seE1dRWZ-119" value="Дані нашого&lt;br&gt;підприємства" style="text;html=1;align=center;verticalAlign=middle;resizable=0;points=[];autosize=1;strokeColor=none;fillColor=none;" parent="1" vertex="1">
          <mxGeometry x="40" y="1089" width="100" height="40" as="geometry" />
        </mxCell>
        <mxCell id="yYSd6SAfWT79seE1dRWZ-120" value="" style="endArrow=classic;html=1;rounded=1;entryX=0.5;entryY=1;entryDx=0;entryDy=0;" parent="1" target="yYSd6SAfWT79seE1dRWZ-79" edge="1">
          <mxGeometry width="50" height="50" relative="1" as="geometry">
            <mxPoint x="130" y="1109" as="sourcePoint" />
            <mxPoint x="741" y="1020" as="targetPoint" />
            <Array as="points">
              <mxPoint x="540" y="1109" />
            </Array>
          </mxGeometry>
        </mxCell>
        <mxCell id="yYSd6SAfWT79seE1dRWZ-123" style="edgeStyle=orthogonalEdgeStyle;rounded=1;orthogonalLoop=1;jettySize=auto;html=1;exitX=1;exitY=0.5;exitDx=0;exitDy=0;entryX=0.25;entryY=1;entryDx=0;entryDy=0;" parent="1" source="yYSd6SAfWT79seE1dRWZ-122" target="yYSd6SAfWT79seE1dRWZ-79" edge="1">
          <mxGeometry relative="1" as="geometry" />
        </mxCell>
        <mxCell id="yYSd6SAfWT79seE1dRWZ-122" value="Обрати послугу" style="rounded=1;whiteSpace=wrap;html=1;" parent="1" vertex="1">
          <mxGeometry x="294" y="811" width="120" height="60" as="geometry" />
        </mxCell>
        <mxCell id="yYSd6SAfWT79seE1dRWZ-125" value="Дані послуг" style="text;html=1;align=center;verticalAlign=middle;resizable=0;points=[];autosize=1;strokeColor=none;fillColor=none;" parent="1" vertex="1">
          <mxGeometry x="165" y="814" width="90" height="30" as="geometry" />
        </mxCell>
        <mxCell id="yYSd6SAfWT79seE1dRWZ-127" value="Код, Назва, VIN, колір&lt;br&gt;&lt;div style=&quot;&quot;&gt;вибраного автомобіля&lt;/div&gt;" style="text;html=1;align=left;verticalAlign=middle;resizable=0;points=[];autosize=1;strokeColor=none;fillColor=none;" parent="1" vertex="1">
          <mxGeometry x="424" y="567" width="150" height="40" as="geometry" />
        </mxCell>
        <mxCell id="yYSd6SAfWT79seE1dRWZ-130" value="Код, назва,&lt;br&gt;ціна послуги" style="text;html=1;align=center;verticalAlign=middle;resizable=0;points=[];autosize=1;strokeColor=none;fillColor=none;" parent="1" vertex="1">
          <mxGeometry x="423" y="806" width="90" height="40" as="geometry" />
        </mxCell>
        <mxCell id="sql4L-lbVOIaNMzBU_Vs-32" style="edgeStyle=orthogonalEdgeStyle;rounded=0;orthogonalLoop=1;jettySize=auto;html=1;exitX=1;exitY=0.5;exitDx=0;exitDy=0;entryX=0;entryY=0.5;entryDx=0;entryDy=0;" edge="1" parent="1" source="sql4L-lbVOIaNMzBU_Vs-1" target="sql4L-lbVOIaNMzBU_Vs-25">
          <mxGeometry relative="1" as="geometry" />
        </mxCell>
        <mxCell id="sql4L-lbVOIaNMzBU_Vs-1" value="Перевірити наявність клієнта в ІС" style="rounded=0;whiteSpace=wrap;html=1;" vertex="1" parent="1">
          <mxGeometry x="960" y="158.5" width="120" height="60" as="geometry" />
        </mxCell>
        <mxCell id="sql4L-lbVOIaNMzBU_Vs-2" value="1" style="rounded=0;whiteSpace=wrap;html=1;" vertex="1" parent="1">
          <mxGeometry x="960" y="217.5" width="60" height="20" as="geometry" />
        </mxCell>
        <mxCell id="sql4L-lbVOIaNMzBU_Vs-3" value="" style="rounded=0;whiteSpace=wrap;html=1;" vertex="1" parent="1">
          <mxGeometry x="1020" y="217.5" width="60" height="20" as="geometry" />
        </mxCell>
        <mxCell id="sql4L-lbVOIaNMzBU_Vs-37" style="edgeStyle=orthogonalEdgeStyle;rounded=1;orthogonalLoop=1;jettySize=auto;html=1;exitX=1;exitY=0.5;exitDx=0;exitDy=0;entryX=0;entryY=0.25;entryDx=0;entryDy=0;" edge="1" parent="1" source="sql4L-lbVOIaNMzBU_Vs-10" target="sql4L-lbVOIaNMzBU_Vs-27">
          <mxGeometry relative="1" as="geometry" />
        </mxCell>
        <mxCell id="sql4L-lbVOIaNMzBU_Vs-10" value="Верифіковані дані" style="rounded=0;whiteSpace=wrap;html=1;" vertex="1" parent="1">
          <mxGeometry x="1241" y="40" width="120" height="60" as="geometry" />
        </mxCell>
        <mxCell id="sql4L-lbVOIaNMzBU_Vs-11" value="2" style="rounded=0;whiteSpace=wrap;html=1;" vertex="1" parent="1">
          <mxGeometry x="1241" y="99" width="60" height="20" as="geometry" />
        </mxCell>
        <mxCell id="sql4L-lbVOIaNMzBU_Vs-12" value="" style="rounded=0;whiteSpace=wrap;html=1;" vertex="1" parent="1">
          <mxGeometry x="1301" y="99" width="60" height="20" as="geometry" />
        </mxCell>
        <mxCell id="sql4L-lbVOIaNMzBU_Vs-36" style="edgeStyle=orthogonalEdgeStyle;rounded=1;orthogonalLoop=1;jettySize=auto;html=1;exitX=1;exitY=0.5;exitDx=0;exitDy=0;entryX=0;entryY=0.75;entryDx=0;entryDy=0;" edge="1" parent="1" source="sql4L-lbVOIaNMzBU_Vs-13" target="sql4L-lbVOIaNMzBU_Vs-27">
          <mxGeometry relative="1" as="geometry" />
        </mxCell>
        <mxCell id="sql4L-lbVOIaNMzBU_Vs-13" value="Зареєструвати клієнта" style="rounded=0;whiteSpace=wrap;html=1;" vertex="1" parent="1">
          <mxGeometry x="1241" y="280.5" width="120" height="60" as="geometry" />
        </mxCell>
        <mxCell id="sql4L-lbVOIaNMzBU_Vs-14" value="3" style="rounded=0;whiteSpace=wrap;html=1;" vertex="1" parent="1">
          <mxGeometry x="1241" y="339.5" width="60" height="20" as="geometry" />
        </mxCell>
        <mxCell id="sql4L-lbVOIaNMzBU_Vs-15" value="" style="rounded=0;whiteSpace=wrap;html=1;" vertex="1" parent="1">
          <mxGeometry x="1301" y="339.5" width="60" height="20" as="geometry" />
        </mxCell>
        <mxCell id="sql4L-lbVOIaNMzBU_Vs-16" value="Вибрати обліковий запис клієнта" style="rounded=0;whiteSpace=wrap;html=1;" vertex="1" parent="1">
          <mxGeometry x="1520" y="160" width="120" height="60" as="geometry" />
        </mxCell>
        <mxCell id="sql4L-lbVOIaNMzBU_Vs-17" value="4" style="rounded=0;whiteSpace=wrap;html=1;" vertex="1" parent="1">
          <mxGeometry x="1520" y="219" width="60" height="20" as="geometry" />
        </mxCell>
        <mxCell id="sql4L-lbVOIaNMzBU_Vs-18" value="" style="rounded=0;whiteSpace=wrap;html=1;" vertex="1" parent="1">
          <mxGeometry x="1580" y="219" width="60" height="20" as="geometry" />
        </mxCell>
        <mxCell id="sql4L-lbVOIaNMzBU_Vs-28" style="edgeStyle=orthogonalEdgeStyle;rounded=0;orthogonalLoop=1;jettySize=auto;html=1;exitX=0.5;exitY=0;exitDx=0;exitDy=0;entryX=1;entryY=1;entryDx=0;entryDy=0;" edge="1" parent="1" source="sql4L-lbVOIaNMzBU_Vs-19" target="sql4L-lbVOIaNMzBU_Vs-2">
          <mxGeometry relative="1" as="geometry" />
        </mxCell>
        <mxCell id="sql4L-lbVOIaNMzBU_Vs-19" value="Клієнт" style="rounded=0;whiteSpace=wrap;html=1;" vertex="1" parent="1">
          <mxGeometry x="960" y="320" width="120" height="60" as="geometry" />
        </mxCell>
        <mxCell id="sql4L-lbVOIaNMzBU_Vs-20" value="" style="rounded=0;whiteSpace=wrap;html=1;" vertex="1" parent="1">
          <mxGeometry x="960" y="379" width="120" height="20" as="geometry" />
        </mxCell>
        <mxCell id="sql4L-lbVOIaNMzBU_Vs-34" style="edgeStyle=orthogonalEdgeStyle;rounded=1;orthogonalLoop=1;jettySize=auto;html=1;exitX=1;exitY=0.25;exitDx=0;exitDy=0;entryX=0;entryY=0.5;entryDx=0;entryDy=0;" edge="1" parent="1" source="sql4L-lbVOIaNMzBU_Vs-24" target="sql4L-lbVOIaNMzBU_Vs-10">
          <mxGeometry relative="1" as="geometry" />
        </mxCell>
        <mxCell id="sql4L-lbVOIaNMzBU_Vs-35" style="edgeStyle=orthogonalEdgeStyle;rounded=1;orthogonalLoop=1;jettySize=auto;html=1;exitX=1;exitY=0.75;exitDx=0;exitDy=0;entryX=0;entryY=0.5;entryDx=0;entryDy=0;" edge="1" parent="1" source="sql4L-lbVOIaNMzBU_Vs-24" target="sql4L-lbVOIaNMzBU_Vs-13">
          <mxGeometry relative="1" as="geometry" />
        </mxCell>
        <mxCell id="sql4L-lbVOIaNMzBU_Vs-24" value="&lt;font style=&quot;font-size: 16px;&quot;&gt;Х&lt;/font&gt;" style="rounded=0;whiteSpace=wrap;html=1;" vertex="1" parent="1">
          <mxGeometry x="1130" y="169" width="40" height="40" as="geometry" />
        </mxCell>
        <mxCell id="sql4L-lbVOIaNMzBU_Vs-25" value="" style="rounded=0;whiteSpace=wrap;html=1;" vertex="1" parent="1">
          <mxGeometry x="1120" y="169" width="10" height="40" as="geometry" />
        </mxCell>
        <mxCell id="sql4L-lbVOIaNMzBU_Vs-33" style="edgeStyle=orthogonalEdgeStyle;rounded=0;orthogonalLoop=1;jettySize=auto;html=1;exitX=1;exitY=0.5;exitDx=0;exitDy=0;entryX=0;entryY=0.5;entryDx=0;entryDy=0;" edge="1" parent="1" source="sql4L-lbVOIaNMzBU_Vs-26" target="sql4L-lbVOIaNMzBU_Vs-16">
          <mxGeometry relative="1" as="geometry" />
        </mxCell>
        <mxCell id="sql4L-lbVOIaNMzBU_Vs-26" value="&lt;font style=&quot;font-size: 16px;&quot;&gt;Х&lt;/font&gt;" style="rounded=0;whiteSpace=wrap;html=1;" vertex="1" parent="1">
          <mxGeometry x="1440" y="170" width="40" height="40" as="geometry" />
        </mxCell>
        <mxCell id="sql4L-lbVOIaNMzBU_Vs-27" value="" style="rounded=0;whiteSpace=wrap;html=1;" vertex="1" parent="1">
          <mxGeometry x="1430" y="170" width="10" height="40" as="geometry" />
        </mxCell>
        <mxCell id="sql4L-lbVOIaNMzBU_Vs-29" value="Усне повідомелння" style="text;html=1;align=center;verticalAlign=middle;resizable=0;points=[];autosize=1;strokeColor=none;fillColor=none;" vertex="1" parent="1">
          <mxGeometry x="1011" y="270" width="130" height="30" as="geometry" />
        </mxCell>
        <mxCell id="sql4L-lbVOIaNMzBU_Vs-38" value="Дані існують" style="text;html=1;align=center;verticalAlign=middle;resizable=0;points=[];autosize=1;strokeColor=none;fillColor=none;" vertex="1" parent="1">
          <mxGeometry x="1199" y="132" width="90" height="30" as="geometry" />
        </mxCell>
        <mxCell id="sql4L-lbVOIaNMzBU_Vs-39" value="Даних немає" style="text;html=1;align=center;verticalAlign=middle;resizable=0;points=[];autosize=1;strokeColor=none;fillColor=none;" vertex="1" parent="1">
          <mxGeometry x="1194" y="217" width="100" height="30" as="geometry" />
        </mxCell>
        <mxCell id="sql4L-lbVOIaNMzBU_Vs-40" value="&lt;font style=&quot;font-size: 20px;&quot;&gt;J1&lt;/font&gt;" style="text;html=1;align=center;verticalAlign=middle;resizable=0;points=[];autosize=1;strokeColor=none;fillColor=none;" vertex="1" parent="1">
          <mxGeometry x="1158" y="200" width="40" height="40" as="geometry" />
        </mxCell>
        <mxCell id="sql4L-lbVOIaNMzBU_Vs-41" value="&lt;font style=&quot;font-size: 20px;&quot;&gt;J2&lt;/font&gt;" style="text;html=1;align=center;verticalAlign=middle;resizable=0;points=[];autosize=1;strokeColor=none;fillColor=none;" vertex="1" parent="1">
          <mxGeometry x="1464" y="203" width="40" height="40" as="geometry" />
        </mxCell>
        <mxCell id="sql4L-lbVOIaNMzBU_Vs-42" style="edgeStyle=orthogonalEdgeStyle;rounded=0;orthogonalLoop=1;jettySize=auto;html=1;exitX=1;exitY=0.5;exitDx=0;exitDy=0;entryX=0;entryY=0.5;entryDx=0;entryDy=0;" edge="1" parent="1" source="sql4L-lbVOIaNMzBU_Vs-43" target="sql4L-lbVOIaNMzBU_Vs-63">
          <mxGeometry relative="1" as="geometry" />
        </mxCell>
        <mxCell id="sql4L-lbVOIaNMzBU_Vs-43" value="Перевірили наявність послуги в ІС" style="rounded=0;whiteSpace=wrap;html=1;" vertex="1" parent="1">
          <mxGeometry x="960" y="668.5" width="120" height="60" as="geometry" />
        </mxCell>
        <mxCell id="sql4L-lbVOIaNMzBU_Vs-44" value="1" style="rounded=0;whiteSpace=wrap;html=1;" vertex="1" parent="1">
          <mxGeometry x="960" y="727.5" width="60" height="20" as="geometry" />
        </mxCell>
        <mxCell id="sql4L-lbVOIaNMzBU_Vs-45" value="" style="rounded=0;whiteSpace=wrap;html=1;" vertex="1" parent="1">
          <mxGeometry x="1020" y="727.5" width="60" height="20" as="geometry" />
        </mxCell>
        <mxCell id="sql4L-lbVOIaNMzBU_Vs-80" style="edgeStyle=orthogonalEdgeStyle;rounded=0;orthogonalLoop=1;jettySize=auto;html=1;exitX=1;exitY=0.5;exitDx=0;exitDy=0;entryX=0;entryY=0.5;entryDx=0;entryDy=0;" edge="1" parent="1" source="sql4L-lbVOIaNMzBU_Vs-47" target="sql4L-lbVOIaNMzBU_Vs-76">
          <mxGeometry relative="1" as="geometry" />
        </mxCell>
        <mxCell id="sql4L-lbVOIaNMzBU_Vs-47" value="Визначити доцільність ремонту" style="rounded=0;whiteSpace=wrap;html=1;" vertex="1" parent="1">
          <mxGeometry x="1241" y="550" width="120" height="60" as="geometry" />
        </mxCell>
        <mxCell id="sql4L-lbVOIaNMzBU_Vs-48" value="2" style="rounded=0;whiteSpace=wrap;html=1;" vertex="1" parent="1">
          <mxGeometry x="1241" y="609" width="60" height="20" as="geometry" />
        </mxCell>
        <mxCell id="sql4L-lbVOIaNMzBU_Vs-49" value="" style="rounded=0;whiteSpace=wrap;html=1;" vertex="1" parent="1">
          <mxGeometry x="1301" y="609" width="60" height="20" as="geometry" />
        </mxCell>
        <mxCell id="sql4L-lbVOIaNMzBU_Vs-50" style="edgeStyle=orthogonalEdgeStyle;rounded=1;orthogonalLoop=1;jettySize=auto;html=1;exitX=1;exitY=0.5;exitDx=0;exitDy=0;entryX=0;entryY=0.75;entryDx=0;entryDy=0;" edge="1" parent="1" source="sql4L-lbVOIaNMzBU_Vs-51" target="sql4L-lbVOIaNMzBU_Vs-66">
          <mxGeometry relative="1" as="geometry" />
        </mxCell>
        <mxCell id="sql4L-lbVOIaNMzBU_Vs-51" value="Не обслуговувати автомобіль" style="rounded=0;whiteSpace=wrap;html=1;" vertex="1" parent="1">
          <mxGeometry x="1521" y="664.5" width="120" height="60" as="geometry" />
        </mxCell>
        <mxCell id="sql4L-lbVOIaNMzBU_Vs-52" value="4" style="rounded=0;whiteSpace=wrap;html=1;" vertex="1" parent="1">
          <mxGeometry x="1521" y="723.5" width="60" height="20" as="geometry" />
        </mxCell>
        <mxCell id="sql4L-lbVOIaNMzBU_Vs-53" value="" style="rounded=0;whiteSpace=wrap;html=1;" vertex="1" parent="1">
          <mxGeometry x="1581" y="723.5" width="60" height="20" as="geometry" />
        </mxCell>
        <mxCell id="sql4L-lbVOIaNMzBU_Vs-54" value="Передати автомобіль менеджеру" style="rounded=0;whiteSpace=wrap;html=1;" vertex="1" parent="1">
          <mxGeometry x="1805" y="551" width="120" height="60" as="geometry" />
        </mxCell>
        <mxCell id="sql4L-lbVOIaNMzBU_Vs-55" value="5" style="rounded=0;whiteSpace=wrap;html=1;" vertex="1" parent="1">
          <mxGeometry x="1805" y="610" width="60" height="20" as="geometry" />
        </mxCell>
        <mxCell id="sql4L-lbVOIaNMzBU_Vs-56" value="" style="rounded=0;whiteSpace=wrap;html=1;" vertex="1" parent="1">
          <mxGeometry x="1865" y="610" width="60" height="20" as="geometry" />
        </mxCell>
        <mxCell id="sql4L-lbVOIaNMzBU_Vs-57" style="edgeStyle=orthogonalEdgeStyle;rounded=0;orthogonalLoop=1;jettySize=auto;html=1;exitX=0.5;exitY=0;exitDx=0;exitDy=0;entryX=1;entryY=1;entryDx=0;entryDy=0;" edge="1" parent="1" source="sql4L-lbVOIaNMzBU_Vs-58" target="sql4L-lbVOIaNMzBU_Vs-44">
          <mxGeometry relative="1" as="geometry" />
        </mxCell>
        <mxCell id="sql4L-lbVOIaNMzBU_Vs-58" value="Працівник станції обслуговування" style="rounded=0;whiteSpace=wrap;html=1;" vertex="1" parent="1">
          <mxGeometry x="960" y="830" width="120" height="60" as="geometry" />
        </mxCell>
        <mxCell id="sql4L-lbVOIaNMzBU_Vs-59" value="" style="rounded=0;whiteSpace=wrap;html=1;" vertex="1" parent="1">
          <mxGeometry x="960" y="889" width="120" height="20" as="geometry" />
        </mxCell>
        <mxCell id="sql4L-lbVOIaNMzBU_Vs-60" style="edgeStyle=orthogonalEdgeStyle;rounded=1;orthogonalLoop=1;jettySize=auto;html=1;exitX=1;exitY=0.25;exitDx=0;exitDy=0;entryX=0;entryY=0.5;entryDx=0;entryDy=0;" edge="1" parent="1" source="sql4L-lbVOIaNMzBU_Vs-62" target="sql4L-lbVOIaNMzBU_Vs-47">
          <mxGeometry relative="1" as="geometry" />
        </mxCell>
        <mxCell id="sql4L-lbVOIaNMzBU_Vs-61" style="edgeStyle=orthogonalEdgeStyle;rounded=1;orthogonalLoop=1;jettySize=auto;html=1;exitX=1;exitY=0.75;exitDx=0;exitDy=0;entryX=0;entryY=0.75;entryDx=0;entryDy=0;" edge="1" parent="1" source="sql4L-lbVOIaNMzBU_Vs-62" target="sql4L-lbVOIaNMzBU_Vs-51">
          <mxGeometry relative="1" as="geometry" />
        </mxCell>
        <mxCell id="sql4L-lbVOIaNMzBU_Vs-62" value="&lt;font style=&quot;font-size: 16px;&quot;&gt;Х&lt;/font&gt;" style="rounded=0;whiteSpace=wrap;html=1;" vertex="1" parent="1">
          <mxGeometry x="1130" y="679" width="40" height="40" as="geometry" />
        </mxCell>
        <mxCell id="sql4L-lbVOIaNMzBU_Vs-63" value="" style="rounded=0;whiteSpace=wrap;html=1;" vertex="1" parent="1">
          <mxGeometry x="1120" y="679" width="10" height="40" as="geometry" />
        </mxCell>
        <mxCell id="sql4L-lbVOIaNMzBU_Vs-64" style="edgeStyle=orthogonalEdgeStyle;rounded=0;orthogonalLoop=1;jettySize=auto;html=1;exitX=1;exitY=0.5;exitDx=0;exitDy=0;entryX=0;entryY=0.5;entryDx=0;entryDy=0;" edge="1" parent="1" source="sql4L-lbVOIaNMzBU_Vs-65" target="sql4L-lbVOIaNMzBU_Vs-54">
          <mxGeometry relative="1" as="geometry" />
        </mxCell>
        <mxCell id="sql4L-lbVOIaNMzBU_Vs-65" value="&lt;font style=&quot;font-size: 16px;&quot;&gt;Х&lt;/font&gt;" style="rounded=0;whiteSpace=wrap;html=1;" vertex="1" parent="1">
          <mxGeometry x="1725" y="561" width="40" height="40" as="geometry" />
        </mxCell>
        <mxCell id="sql4L-lbVOIaNMzBU_Vs-66" value="" style="rounded=0;whiteSpace=wrap;html=1;" vertex="1" parent="1">
          <mxGeometry x="1715" y="561" width="10" height="40" as="geometry" />
        </mxCell>
        <mxCell id="sql4L-lbVOIaNMzBU_Vs-67" value="Усне повідомелння" style="text;html=1;align=center;verticalAlign=middle;resizable=0;points=[];autosize=1;strokeColor=none;fillColor=none;" vertex="1" parent="1">
          <mxGeometry x="1010" y="780" width="130" height="30" as="geometry" />
        </mxCell>
        <mxCell id="sql4L-lbVOIaNMzBU_Vs-68" value="Послуга існує" style="text;html=1;align=center;verticalAlign=middle;resizable=0;points=[];autosize=1;strokeColor=none;fillColor=none;" vertex="1" parent="1">
          <mxGeometry x="1198" y="652.25" width="100" height="30" as="geometry" />
        </mxCell>
        <mxCell id="sql4L-lbVOIaNMzBU_Vs-69" value="Послуги немає" style="text;html=1;align=center;verticalAlign=middle;resizable=0;points=[];autosize=1;strokeColor=none;fillColor=none;" vertex="1" parent="1">
          <mxGeometry x="1197" y="710.5" width="110" height="30" as="geometry" />
        </mxCell>
        <mxCell id="sql4L-lbVOIaNMzBU_Vs-70" value="&lt;font style=&quot;font-size: 20px;&quot;&gt;J1&lt;/font&gt;" style="text;html=1;align=center;verticalAlign=middle;resizable=0;points=[];autosize=1;strokeColor=none;fillColor=none;" vertex="1" parent="1">
          <mxGeometry x="1158" y="710" width="40" height="40" as="geometry" />
        </mxCell>
        <mxCell id="sql4L-lbVOIaNMzBU_Vs-71" value="&lt;font style=&quot;font-size: 20px;&quot;&gt;J3&lt;/font&gt;" style="text;html=1;align=center;verticalAlign=middle;resizable=0;points=[];autosize=1;strokeColor=none;fillColor=none;" vertex="1" parent="1">
          <mxGeometry x="1749" y="594" width="40" height="40" as="geometry" />
        </mxCell>
        <mxCell id="sql4L-lbVOIaNMzBU_Vs-84" style="edgeStyle=orthogonalEdgeStyle;rounded=1;orthogonalLoop=1;jettySize=auto;html=1;exitX=1;exitY=0.25;exitDx=0;exitDy=0;entryX=0;entryY=0.5;entryDx=0;entryDy=0;" edge="1" parent="1" source="sql4L-lbVOIaNMzBU_Vs-75" target="sql4L-lbVOIaNMzBU_Vs-81">
          <mxGeometry relative="1" as="geometry" />
        </mxCell>
        <mxCell id="sql4L-lbVOIaNMzBU_Vs-85" style="edgeStyle=orthogonalEdgeStyle;rounded=1;orthogonalLoop=1;jettySize=auto;html=1;exitX=1;exitY=0.75;exitDx=0;exitDy=0;entryX=0;entryY=0.25;entryDx=0;entryDy=0;" edge="1" parent="1" source="sql4L-lbVOIaNMzBU_Vs-75" target="sql4L-lbVOIaNMzBU_Vs-51">
          <mxGeometry relative="1" as="geometry" />
        </mxCell>
        <mxCell id="sql4L-lbVOIaNMzBU_Vs-75" value="&lt;font style=&quot;font-size: 16px;&quot;&gt;Х&lt;/font&gt;" style="rounded=0;whiteSpace=wrap;html=1;" vertex="1" parent="1">
          <mxGeometry x="1411" y="559.4300000000001" width="40" height="40" as="geometry" />
        </mxCell>
        <mxCell id="sql4L-lbVOIaNMzBU_Vs-76" value="" style="rounded=0;whiteSpace=wrap;html=1;" vertex="1" parent="1">
          <mxGeometry x="1401" y="559.4300000000001" width="10" height="40" as="geometry" />
        </mxCell>
        <mxCell id="sql4L-lbVOIaNMzBU_Vs-77" value="&lt;font style=&quot;font-size: 20px;&quot;&gt;J2&lt;/font&gt;" style="text;html=1;align=center;verticalAlign=middle;resizable=0;points=[];autosize=1;strokeColor=none;fillColor=none;" vertex="1" parent="1">
          <mxGeometry x="1435" y="592.4300000000001" width="40" height="40" as="geometry" />
        </mxCell>
        <mxCell id="sql4L-lbVOIaNMzBU_Vs-89" style="edgeStyle=orthogonalEdgeStyle;orthogonalLoop=1;jettySize=auto;html=1;exitX=1;exitY=0.5;exitDx=0;exitDy=0;entryX=0;entryY=0.25;entryDx=0;entryDy=0;rounded=1;" edge="1" parent="1" source="sql4L-lbVOIaNMzBU_Vs-81" target="sql4L-lbVOIaNMzBU_Vs-66">
          <mxGeometry relative="1" as="geometry" />
        </mxCell>
        <mxCell id="sql4L-lbVOIaNMzBU_Vs-81" value="Провести обслуговування" style="rounded=0;whiteSpace=wrap;html=1;" vertex="1" parent="1">
          <mxGeometry x="1519" y="442.75000000000006" width="120" height="60" as="geometry" />
        </mxCell>
        <mxCell id="sql4L-lbVOIaNMzBU_Vs-82" value="3" style="rounded=0;whiteSpace=wrap;html=1;" vertex="1" parent="1">
          <mxGeometry x="1519" y="501.75000000000006" width="60" height="20" as="geometry" />
        </mxCell>
        <mxCell id="sql4L-lbVOIaNMzBU_Vs-83" value="" style="rounded=0;whiteSpace=wrap;html=1;" vertex="1" parent="1">
          <mxGeometry x="1579" y="501.75000000000006" width="60" height="20" as="geometry" />
        </mxCell>
        <mxCell id="sql4L-lbVOIaNMzBU_Vs-86" value="Витрати &lt;br&gt;перебільшують дохід" style="text;html=1;align=left;verticalAlign=middle;resizable=0;points=[];autosize=1;strokeColor=none;fillColor=none;" vertex="1" parent="1">
          <mxGeometry x="1491" y="603" width="140" height="40" as="geometry" />
        </mxCell>
        <mxCell id="sql4L-lbVOIaNMzBU_Vs-87" value="Дохід більший за витрати" style="text;html=1;align=left;verticalAlign=middle;resizable=0;points=[];autosize=1;strokeColor=none;fillColor=none;" vertex="1" parent="1">
          <mxGeometry x="1491" y="535" width="170" height="30" as="geometry" />
        </mxCell>
      </root>
    </mxGraphModel>
  </diagram>
</mxfile>
